<mxfile host="app.diagrams.net" modified="2020-08-19T22:39:36.786Z" agent="5.0 (Windows)" etag="Dn8mV_CviFf1cDLGD41W" version="13.6.2" type="github">
  <diagram id="R2lEEEUBdFMjLlhIrx00" name="Page-1">
    <mxGraphModel dx="782" dy="432" grid="1" gridSize="10" guides="1" tooltips="1" connect="1" arrows="1" fold="1" page="1" pageScale="1" pageWidth="850" pageHeight="1100" math="0" shadow="0" extFonts="Permanent Marker^https://fonts.googleapis.com/css?family=Permanent+Marker">
      <root>
        <mxCell id="0" />
        <mxCell id="1" parent="0" />
        <mxCell id="r35ePr4NIACd1fAfcxiG-1" style="edgeStyle=orthogonalEdgeStyle;rounded=0;orthogonalLoop=1;jettySize=auto;html=1;exitX=1;exitY=0.25;exitDx=0;exitDy=0;entryX=0;entryY=0.25;entryDx=0;entryDy=0;" edge="1" parent="1" source="kBeq69DackIkNgG58orV-1" target="kBeq69DackIkNgG58orV-3">
          <mxGeometry relative="1" as="geometry" />
        </mxCell>
        <mxCell id="kBeq69DackIkNgG58orV-1" value="&lt;div&gt;Activitywatch Server&lt;/div&gt;" style="whiteSpace=wrap;html=1;" parent="1" vertex="1">
          <mxGeometry x="40" y="40" width="120" height="60" as="geometry" />
        </mxCell>
        <mxCell id="r35ePr4NIACd1fAfcxiG-4" style="edgeStyle=orthogonalEdgeStyle;rounded=0;orthogonalLoop=1;jettySize=auto;html=1;exitX=0;exitY=0.75;exitDx=0;exitDy=0;entryX=1;entryY=0.75;entryDx=0;entryDy=0;" edge="1" parent="1" source="kBeq69DackIkNgG58orV-2" target="kBeq69DackIkNgG58orV-3">
          <mxGeometry relative="1" as="geometry" />
        </mxCell>
        <mxCell id="kBeq69DackIkNgG58orV-2" value="&lt;div&gt;Matrix Server&lt;/div&gt;" style="whiteSpace=wrap;html=1;" parent="1" vertex="1">
          <mxGeometry x="360" y="40" width="120" height="60" as="geometry" />
        </mxCell>
        <mxCell id="r35ePr4NIACd1fAfcxiG-2" style="edgeStyle=orthogonalEdgeStyle;rounded=0;orthogonalLoop=1;jettySize=auto;html=1;exitX=0;exitY=0.75;exitDx=0;exitDy=0;entryX=1;entryY=0.75;entryDx=0;entryDy=0;" edge="1" parent="1" source="kBeq69DackIkNgG58orV-3" target="kBeq69DackIkNgG58orV-1">
          <mxGeometry relative="1" as="geometry" />
        </mxCell>
        <mxCell id="r35ePr4NIACd1fAfcxiG-3" style="edgeStyle=orthogonalEdgeStyle;rounded=0;orthogonalLoop=1;jettySize=auto;html=1;exitX=1;exitY=0.25;exitDx=0;exitDy=0;entryX=0;entryY=0.25;entryDx=0;entryDy=0;" edge="1" parent="1" source="kBeq69DackIkNgG58orV-3" target="kBeq69DackIkNgG58orV-2">
          <mxGeometry relative="1" as="geometry" />
        </mxCell>
        <mxCell id="kBeq69DackIkNgG58orV-3" value="&lt;div&gt;Bridge&lt;br&gt;&lt;/div&gt;" style="whiteSpace=wrap;html=1;" parent="1" vertex="1">
          <mxGeometry x="200" y="40" width="120" height="60" as="geometry" />
        </mxCell>
      </root>
    </mxGraphModel>
  </diagram>
</mxfile>
